# xmcd
#
# Track frame offsets: 
#        150
#        17988
#        33558
#        47797
#        64943
#        82371
#        102842
#        128308
#        142081
#        156520
#        172124
#        188259
#        206070
#
# Disc length: 3253 seconds
#
# Revision: 0
# Processed by: cddbd v1.5.1PL0 Copyright (c) Steve Scherf et al.
# Submitted via: ExactAudioCopy v0.95b3
#
DISCID=bc0cb30d
DTITLE=Doo-Wah Riders - Live
DYEAR=1998
DGENRE=
TTITLE0=Cowboy Hero's Medley
TTITLE1=A Girl Like You
TTITLE2=Smack Dab In The Middle Of You
TTITLE3=Smokes And A Six Pack
TTITLE4=Whoopee Ti You
TTITLE5=Honky Tonk Blues
TTITLE6=Cajun Medley
TTITLE7=Curly Shuffle
TTITLE8=Eyes Of A Storm
TTITLE9=Did You Think I Had A Choice
TTITLE10=Brown Eyed Girl
TTITLE11=Neon Moondance
TTITLE12=Orange Blossom Special
EXTD=
EXTT0=
EXTT1=
EXTT2=
EXTT3=
EXTT4=
EXTT5=
EXTT6=
EXTT7=
EXTT8=
EXTT9=
EXTT10=
EXTT11=
EXTT12=
PLAYORDER=
